<mxfile host="app.diagrams.net" agent="Mozilla/5.0 (Windows NT 10.0; Win64; x64) AppleWebKit/537.36 (KHTML, like Gecko) Chrome/133.0.0.0 Safari/537.36" version="26.1.0">
  <diagram name="Page-1" id="S89qIeHh7KQCCQv6GMEP">
    <mxGraphModel dx="2219" dy="1384" grid="1" gridSize="10" guides="1" tooltips="1" connect="1" arrows="1" fold="1" page="1" pageScale="1" pageWidth="1169" pageHeight="827" math="0" shadow="0">
      <root>
        <mxCell id="0" />
        <mxCell id="1" parent="0" />
        <mxCell id="tzx16_V4M8z1LRsu566N-1" style="edgeStyle=orthogonalEdgeStyle;rounded=1;orthogonalLoop=1;jettySize=auto;html=1;exitX=0.75;exitY=1;exitDx=0;exitDy=0;entryX=0.5;entryY=0;entryDx=0;entryDy=0;curved=0;strokeWidth=3;strokeColor=#999999;" parent="1" source="aRZHGxfGEfz58jmsyv-Q-1" target="aRZHGxfGEfz58jmsyv-Q-12" edge="1">
          <mxGeometry relative="1" as="geometry">
            <Array as="points">
              <mxPoint x="-1010" y="-350" />
              <mxPoint x="-1010" y="-260" />
              <mxPoint x="-910" y="-260" />
            </Array>
          </mxGeometry>
        </mxCell>
        <mxCell id="tzx16_V4M8z1LRsu566N-2" value="&lt;b&gt;PEAKF&lt;/b&gt;" style="edgeLabel;html=1;align=center;verticalAlign=middle;resizable=0;points=[];" parent="tzx16_V4M8z1LRsu566N-1" vertex="1" connectable="0">
          <mxGeometry x="0.3271" y="2" relative="1" as="geometry">
            <mxPoint as="offset" />
          </mxGeometry>
        </mxCell>
        <mxCell id="dJA3jDGMHxTQLogz002v-4" value="&lt;div&gt;&lt;b&gt;&lt;font style=&quot;font-size: 24px;&quot;&gt;&lt;br&gt;&lt;/font&gt;&lt;/b&gt;&lt;/div&gt;&lt;b&gt;&lt;font style=&quot;font-size: 24px;&quot;&gt;&lt;div&gt;&lt;b&gt;&lt;font style=&quot;font-size: 24px;&quot;&gt;&lt;br&gt;&lt;/font&gt;&lt;/b&gt;&lt;/div&gt;&lt;div&gt;&lt;b&gt;&lt;font style=&quot;font-size: 24px;&quot;&gt;&lt;br&gt;&lt;/font&gt;&lt;/b&gt;&lt;/div&gt;&lt;div&gt;&lt;b&gt;&lt;font style=&quot;font-size: 24px;&quot;&gt;&lt;br&gt;&lt;/font&gt;&lt;/b&gt;&lt;/div&gt;&lt;div&gt;&lt;b&gt;&lt;font style=&quot;font-size: 24px;&quot;&gt;&lt;br&gt;&lt;/font&gt;&lt;/b&gt;&lt;/div&gt;&lt;div&gt;&lt;b&gt;&lt;font style=&quot;font-size: 24px;&quot;&gt;&lt;br&gt;&lt;/font&gt;&lt;/b&gt;&lt;/div&gt;&lt;div&gt;&lt;b&gt;&lt;font style=&quot;font-size: 24px;&quot;&gt;&lt;br&gt;&lt;/font&gt;&lt;/b&gt;&lt;/div&gt;&lt;div&gt;&lt;b&gt;&lt;font style=&quot;font-size: 24px;&quot;&gt;&lt;br&gt;&lt;/font&gt;&lt;/b&gt;&lt;/div&gt;&lt;div&gt;&lt;b&gt;&lt;font style=&quot;font-size: 24px;&quot;&gt;&lt;br&gt;&lt;/font&gt;&lt;/b&gt;&lt;/div&gt;&lt;div&gt;&lt;b&gt;&lt;font style=&quot;font-size: 24px;&quot;&gt;&lt;br&gt;&lt;/font&gt;&lt;/b&gt;&lt;/div&gt;&lt;div&gt;&lt;b&gt;&lt;font style=&quot;font-size: 24px;&quot;&gt;&lt;br&gt;&lt;/font&gt;&lt;/b&gt;&lt;/div&gt;&lt;div&gt;&lt;b&gt;&lt;font style=&quot;font-size: 24px;&quot;&gt;&lt;br&gt;&lt;/font&gt;&lt;/b&gt;&lt;/div&gt;&lt;div&gt;&lt;b&gt;&lt;font style=&quot;font-size: 24px;&quot;&gt;&lt;br&gt;&lt;/font&gt;&lt;/b&gt;&lt;/div&gt;&lt;div&gt;&lt;b&gt;&lt;font style=&quot;font-size: 24px;&quot;&gt;&lt;br&gt;&lt;/font&gt;&lt;/b&gt;&lt;/div&gt;&lt;div&gt;&lt;b&gt;&lt;font style=&quot;font-size: 24px;&quot;&gt;&lt;br&gt;&lt;/font&gt;&lt;/b&gt;&lt;/div&gt;&lt;div&gt;&lt;b&gt;&lt;font style=&quot;font-size: 24px;&quot;&gt;&lt;br&gt;&lt;/font&gt;&lt;/b&gt;&lt;/div&gt;&lt;div&gt;&lt;b&gt;&lt;font style=&quot;font-size: 24px;&quot;&gt;&lt;br&gt;&lt;/font&gt;&lt;/b&gt;&lt;/div&gt;&lt;div&gt;&lt;b&gt;&lt;font style=&quot;font-size: 24px;&quot;&gt;&lt;br&gt;&lt;/font&gt;&lt;/b&gt;&lt;/div&gt;&lt;div&gt;&lt;b&gt;&lt;font style=&quot;font-size: 24px;&quot;&gt;&lt;br&gt;&lt;/font&gt;&lt;/b&gt;&lt;/div&gt;&lt;div&gt;&lt;b&gt;&lt;font style=&quot;font-size: 24px;&quot;&gt;&lt;br&gt;&lt;/font&gt;&lt;/b&gt;&lt;/div&gt;&lt;div&gt;&lt;b&gt;&lt;font style=&quot;font-size: 24px;&quot;&gt;&lt;br&gt;&lt;/font&gt;&lt;/b&gt;&lt;/div&gt;&lt;div&gt;&lt;b&gt;&lt;font style=&quot;font-size: 24px;&quot;&gt;&lt;br&gt;&lt;/font&gt;&lt;/b&gt;&lt;/div&gt;&lt;div&gt;&lt;b&gt;&lt;font style=&quot;font-size: 24px;&quot;&gt;&lt;br&gt;&lt;/font&gt;&lt;/b&gt;&lt;/div&gt;&lt;div&gt;&lt;b&gt;&lt;font style=&quot;font-size: 24px;&quot;&gt;&lt;br&gt;&lt;/font&gt;&lt;/b&gt;&lt;/div&gt;&lt;div&gt;&lt;b&gt;&lt;font style=&quot;font-size: 24px;&quot;&gt;&lt;br&gt;&lt;/font&gt;&lt;/b&gt;&lt;/div&gt;&lt;div&gt;&lt;b&gt;&lt;font style=&quot;font-size: 24px;&quot;&gt;&lt;br&gt;&lt;/font&gt;&lt;/b&gt;&lt;/div&gt;&lt;div&gt;&lt;b&gt;&lt;font style=&quot;font-size: 24px;&quot;&gt;&lt;br&gt;&lt;/font&gt;&lt;/b&gt;&lt;/div&gt;&lt;div&gt;&lt;b&gt;&lt;font style=&quot;font-size: 24px;&quot;&gt;&lt;br&gt;&lt;/font&gt;&lt;/b&gt;&lt;/div&gt;&lt;div&gt;&lt;b&gt;&lt;font style=&quot;font-size: 24px;&quot;&gt;&lt;br&gt;&lt;/font&gt;&lt;/b&gt;&lt;/div&gt;&lt;div&gt;&lt;b style=&quot;background-color: transparent; color: light-dark(rgb(51, 51, 51), rgb(193, 193, 193)); font-size: 12px;&quot;&gt;&lt;font style=&quot;font-size: 24px;&quot;&gt;&lt;br&gt;&lt;/font&gt;&lt;/b&gt;&lt;/div&gt;&lt;div&gt;&lt;b style=&quot;background-color: transparent; color: light-dark(rgb(51, 51, 51), rgb(193, 193, 193)); font-size: 12px;&quot;&gt;&lt;font style=&quot;font-size: 24px;&quot;&gt;Control Unit&amp;nbsp;&amp;nbsp;&lt;/font&gt;&lt;/b&gt;&lt;/div&gt;&lt;/font&gt;&lt;/b&gt;" style="rounded=0;whiteSpace=wrap;html=1;fillColor=#E6E6E6;fontColor=#333333;strokeColor=#808080;sketch=1;curveFitting=1;jiggle=2;strokeWidth=4;fillStyle=dashed;align=right;" parent="1" vertex="1">
          <mxGeometry x="-810" y="-760" width="920" height="920" as="geometry" />
        </mxCell>
        <mxCell id="dJA3jDGMHxTQLogz002v-7" value="&lt;div style=&quot;&quot;&gt;&lt;b style=&quot;background-color: transparent; color: light-dark(rgb(0, 0, 0), rgb(255, 255, 255));&quot;&gt;&lt;font style=&quot;font-size: 20px;&quot;&gt;&lt;br&gt;&lt;/font&gt;&lt;/b&gt;&lt;/div&gt;&lt;div style=&quot;&quot;&gt;&lt;b style=&quot;background-color: transparent; color: light-dark(rgb(0, 0, 0), rgb(255, 255, 255));&quot;&gt;&lt;font style=&quot;font-size: 20px;&quot;&gt;&lt;br&gt;&lt;/font&gt;&lt;/b&gt;&lt;/div&gt;&lt;div style=&quot;&quot;&gt;&lt;b style=&quot;background-color: transparent; color: light-dark(rgb(0, 0, 0), rgb(255, 255, 255));&quot;&gt;&lt;font style=&quot;font-size: 20px;&quot;&gt;&lt;br&gt;&lt;/font&gt;&lt;/b&gt;&lt;/div&gt;&lt;div style=&quot;&quot;&gt;&lt;b style=&quot;background-color: transparent; color: light-dark(rgb(0, 0, 0), rgb(255, 255, 255));&quot;&gt;&lt;font style=&quot;font-size: 20px;&quot;&gt;&lt;br&gt;&lt;/font&gt;&lt;/b&gt;&lt;/div&gt;&lt;div style=&quot;&quot;&gt;&lt;b style=&quot;background-color: transparent; color: light-dark(rgb(0, 0, 0), rgb(255, 255, 255));&quot;&gt;&lt;font style=&quot;font-size: 20px;&quot;&gt;&lt;br&gt;&lt;/font&gt;&lt;/b&gt;&lt;/div&gt;&lt;div style=&quot;&quot;&gt;&lt;b style=&quot;background-color: transparent; color: light-dark(rgb(0, 0, 0), rgb(255, 255, 255));&quot;&gt;&lt;font style=&quot;font-size: 20px;&quot;&gt;&lt;br&gt;&lt;/font&gt;&lt;/b&gt;&lt;/div&gt;&lt;div style=&quot;&quot;&gt;&lt;b style=&quot;background-color: transparent; color: light-dark(rgb(0, 0, 0), rgb(255, 255, 255));&quot;&gt;&lt;font style=&quot;font-size: 20px;&quot;&gt;&lt;br&gt;&lt;/font&gt;&lt;/b&gt;&lt;/div&gt;&lt;div style=&quot;&quot;&gt;&lt;b style=&quot;background-color: transparent; color: light-dark(rgb(0, 0, 0), rgb(255, 255, 255));&quot;&gt;&lt;font style=&quot;font-size: 20px;&quot;&gt;&lt;br&gt;&lt;/font&gt;&lt;/b&gt;&lt;/div&gt;&lt;div style=&quot;&quot;&gt;&lt;b style=&quot;background-color: transparent; color: light-dark(rgb(0, 0, 0), rgb(255, 255, 255));&quot;&gt;&lt;font style=&quot;font-size: 20px;&quot;&gt;&lt;br&gt;&lt;/font&gt;&lt;/b&gt;&lt;/div&gt;&lt;div style=&quot;&quot;&gt;&lt;font style=&quot;font-size: 20px;&quot;&gt;&lt;b style=&quot;background-color: transparent; color: light-dark(rgb(0, 0, 0), rgb(255, 255, 255));&quot;&gt;&lt;font style=&quot;&quot;&gt;State =&amp;nbsp;&lt;/font&gt;&lt;/b&gt;&lt;b style=&quot;background-color: transparent; color: light-dark(rgb(0, 0, 0), rgb(255, 255, 255));&quot;&gt;&lt;font style=&quot;&quot;&gt;TEST&amp;nbsp;&amp;nbsp;&lt;/font&gt;&lt;/b&gt;&lt;/font&gt;&lt;/div&gt;" style="whiteSpace=wrap;html=1;fillColor=#e1d5e7;strokeColor=#9673a6;rounded=0;sketch=1;curveFitting=1;jiggle=2;strokeWidth=5;align=right;" parent="1" vertex="1">
          <mxGeometry x="-760" y="-210" width="840" height="292.5" as="geometry" />
        </mxCell>
        <mxCell id="aRZHGxfGEfz58jmsyv-Q-3" value="" style="edgeStyle=orthogonalEdgeStyle;rounded=1;orthogonalLoop=1;jettySize=auto;html=1;curved=0;startArrow=classic;startFill=1;endArrow=none;strokeWidth=3;" parent="1" source="aRZHGxfGEfz58jmsyv-Q-1" target="aRZHGxfGEfz58jmsyv-Q-2" edge="1">
          <mxGeometry relative="1" as="geometry" />
        </mxCell>
        <mxCell id="aRZHGxfGEfz58jmsyv-Q-4" value="&lt;b&gt;Xin&lt;/b&gt;" style="edgeLabel;html=1;align=center;verticalAlign=middle;resizable=0;points=[];" parent="aRZHGxfGEfz58jmsyv-Q-3" vertex="1" connectable="0">
          <mxGeometry x="0.3537" y="-1" relative="1" as="geometry">
            <mxPoint x="-21" y="-7" as="offset" />
          </mxGeometry>
        </mxCell>
        <mxCell id="aRZHGxfGEfz58jmsyv-Q-7" value="" style="edgeStyle=orthogonalEdgeStyle;rounded=1;orthogonalLoop=1;jettySize=auto;html=1;strokeWidth=3;curved=0;" parent="1" source="aRZHGxfGEfz58jmsyv-Q-1" target="aRZHGxfGEfz58jmsyv-Q-6" edge="1">
          <mxGeometry relative="1" as="geometry" />
        </mxCell>
        <mxCell id="aRZHGxfGEfz58jmsyv-Q-8" value="&lt;b&gt;QRS&lt;/b&gt;" style="edgeLabel;html=1;align=center;verticalAlign=middle;resizable=0;points=[];" parent="aRZHGxfGEfz58jmsyv-Q-7" vertex="1" connectable="0">
          <mxGeometry x="-0.1823" y="1" relative="1" as="geometry">
            <mxPoint y="1" as="offset" />
          </mxGeometry>
        </mxCell>
        <mxCell id="aRZHGxfGEfz58jmsyv-Q-1" value="&lt;b&gt;Pan-Tompkins Algorithm&lt;/b&gt;" style="rounded=0;whiteSpace=wrap;html=1;sketch=1;curveFitting=1;jiggle=2;fillColor=#f5f5f5;fontColor=#333333;strokeColor=#000000;strokeWidth=3;" parent="1" vertex="1">
          <mxGeometry x="-1120" y="-410" width="120" height="60" as="geometry" />
        </mxCell>
        <mxCell id="aRZHGxfGEfz58jmsyv-Q-11" value="" style="edgeStyle=orthogonalEdgeStyle;rounded=1;orthogonalLoop=1;jettySize=auto;html=1;strokeWidth=3;curved=0;entryX=0.5;entryY=0;entryDx=0;entryDy=0;" parent="1" source="aRZHGxfGEfz58jmsyv-Q-2" target="aRZHGxfGEfz58jmsyv-Q-10" edge="1">
          <mxGeometry relative="1" as="geometry">
            <Array as="points">
              <mxPoint x="-1060" y="-460" />
              <mxPoint x="-910" y="-460" />
            </Array>
          </mxGeometry>
        </mxCell>
        <mxCell id="aRZHGxfGEfz58jmsyv-Q-2" value="&lt;b&gt;SAR ADC&lt;/b&gt;" style="whiteSpace=wrap;html=1;fillColor=#B3B3B3;strokeColor=#666666;fontColor=#333333;rounded=0;sketch=1;curveFitting=1;jiggle=2;strokeWidth=3;" parent="1" vertex="1">
          <mxGeometry x="-1120" y="-585" width="120" height="60" as="geometry" />
        </mxCell>
        <mxCell id="aRZHGxfGEfz58jmsyv-Q-13" value="" style="edgeStyle=orthogonalEdgeStyle;rounded=1;orthogonalLoop=1;jettySize=auto;html=1;strokeWidth=3;curved=0;" parent="1" source="aRZHGxfGEfz58jmsyv-Q-6" target="aRZHGxfGEfz58jmsyv-Q-12" edge="1">
          <mxGeometry relative="1" as="geometry" />
        </mxCell>
        <mxCell id="aRZHGxfGEfz58jmsyv-Q-6" value="&lt;b&gt;&amp;nbsp;Space Vectors&lt;/b&gt;" style="whiteSpace=wrap;html=1;fillColor=#f5f5f5;strokeColor=#000000;fontColor=#333333;rounded=0;sketch=1;curveFitting=1;jiggle=2;strokeWidth=3;" parent="1" vertex="1">
          <mxGeometry x="-1120" y="-220" width="120" height="60" as="geometry" />
        </mxCell>
        <mxCell id="aRZHGxfGEfz58jmsyv-Q-43" style="edgeStyle=orthogonalEdgeStyle;rounded=1;orthogonalLoop=1;jettySize=auto;html=1;exitX=0.5;exitY=1;exitDx=0;exitDy=0;entryX=0.75;entryY=0;entryDx=0;entryDy=0;curved=0;strokeWidth=3;" parent="1" source="aRZHGxfGEfz58jmsyv-Q-10" target="aRZHGxfGEfz58jmsyv-Q-6" edge="1">
          <mxGeometry relative="1" as="geometry">
            <Array as="points">
              <mxPoint x="-910" y="-330" />
              <mxPoint x="-1030" y="-330" />
            </Array>
          </mxGeometry>
        </mxCell>
        <mxCell id="aRZHGxfGEfz58jmsyv-Q-10" value="&lt;b&gt;Shift Register&lt;/b&gt;&lt;div&gt;d = 5&lt;/div&gt;" style="whiteSpace=wrap;html=1;fillColor=#f5f5f5;strokeColor=#000000;fontColor=#333333;rounded=0;sketch=1;curveFitting=1;jiggle=2;strokeWidth=3;" parent="1" vertex="1">
          <mxGeometry x="-970" y="-410" width="120" height="60" as="geometry" />
        </mxCell>
        <mxCell id="aRZHGxfGEfz58jmsyv-Q-16" value="" style="edgeStyle=orthogonalEdgeStyle;rounded=1;orthogonalLoop=1;jettySize=auto;html=1;curved=0;strokeWidth=3;exitX=1;exitY=0.5;exitDx=0;exitDy=0;" parent="1" source="aRZHGxfGEfz58jmsyv-Q-12" target="aRZHGxfGEfz58jmsyv-Q-15" edge="1">
          <mxGeometry relative="1" as="geometry">
            <mxPoint x="-780" y="-185" as="sourcePoint" />
            <Array as="points">
              <mxPoint x="-790" y="-190" />
              <mxPoint x="-790" y="-60" />
            </Array>
          </mxGeometry>
        </mxCell>
        <mxCell id="aRZHGxfGEfz58jmsyv-Q-12" value="&lt;b&gt;Quantized&lt;/b&gt;&lt;div&gt;M = PEAKF, L = 6&lt;/div&gt;" style="whiteSpace=wrap;html=1;fillColor=#f5f5f5;strokeColor=#000000;fontColor=#333333;rounded=0;sketch=1;curveFitting=1;jiggle=2;strokeWidth=3;" parent="1" vertex="1">
          <mxGeometry x="-970" y="-220" width="120" height="60" as="geometry" />
        </mxCell>
        <mxCell id="aRZHGxfGEfz58jmsyv-Q-18" style="edgeStyle=orthogonalEdgeStyle;rounded=1;orthogonalLoop=1;jettySize=auto;html=1;exitX=1;exitY=0.5;exitDx=0;exitDy=0;entryX=0.5;entryY=0;entryDx=0;entryDy=0;strokeWidth=3;curved=0;" parent="1" source="aRZHGxfGEfz58jmsyv-Q-14" target="aRZHGxfGEfz58jmsyv-Q-17" edge="1">
          <mxGeometry relative="1" as="geometry" />
        </mxCell>
        <mxCell id="aRZHGxfGEfz58jmsyv-Q-14" value="&lt;b&gt;RPSM&lt;/b&gt;&lt;div&gt;RSPM = Current PSM&lt;/div&gt;" style="rounded=0;whiteSpace=wrap;html=1;fillColor=#f5f5f5;fontColor=#333333;strokeColor=#000000;sketch=1;curveFitting=1;jiggle=2;strokeWidth=3;" parent="1" vertex="1">
          <mxGeometry x="-740" y="-295" width="130" height="60" as="geometry" />
        </mxCell>
        <mxCell id="aRZHGxfGEfz58jmsyv-Q-19" style="edgeStyle=orthogonalEdgeStyle;rounded=1;orthogonalLoop=1;jettySize=auto;html=1;exitX=1;exitY=0.5;exitDx=0;exitDy=0;entryX=0.5;entryY=1;entryDx=0;entryDy=0;strokeWidth=3;curved=0;" parent="1" source="aRZHGxfGEfz58jmsyv-Q-15" target="aRZHGxfGEfz58jmsyv-Q-17" edge="1">
          <mxGeometry relative="1" as="geometry" />
        </mxCell>
        <mxCell id="aRZHGxfGEfz58jmsyv-Q-15" value="&lt;b&gt;EPSM&lt;/b&gt;" style="whiteSpace=wrap;html=1;fillColor=#f5f5f5;strokeColor=#000000;fontColor=#333333;rounded=0;sketch=1;curveFitting=1;jiggle=2;strokeWidth=3;" parent="1" vertex="1">
          <mxGeometry x="-730" y="-93.75" width="120" height="60" as="geometry" />
        </mxCell>
        <mxCell id="aRZHGxfGEfz58jmsyv-Q-21" value="" style="edgeStyle=orthogonalEdgeStyle;rounded=0;orthogonalLoop=1;jettySize=auto;html=1;strokeWidth=3;" parent="1" source="aRZHGxfGEfz58jmsyv-Q-17" target="aRZHGxfGEfz58jmsyv-Q-20" edge="1">
          <mxGeometry relative="1" as="geometry" />
        </mxCell>
        <mxCell id="aRZHGxfGEfz58jmsyv-Q-17" value="&lt;b&gt;&lt;font style=&quot;font-size: 16px; line-height: 110%;&quot;&gt;-&lt;/font&gt;&lt;/b&gt;" style="ellipse;whiteSpace=wrap;html=1;aspect=fixed;strokeWidth=3;fillColor=#99CCFF;" parent="1" vertex="1">
          <mxGeometry x="-590" y="-165" width="30" height="30" as="geometry" />
        </mxCell>
        <mxCell id="aRZHGxfGEfz58jmsyv-Q-23" value="" style="edgeStyle=orthogonalEdgeStyle;rounded=1;orthogonalLoop=1;jettySize=auto;html=1;strokeWidth=3;curved=0;" parent="1" source="aRZHGxfGEfz58jmsyv-Q-20" target="aRZHGxfGEfz58jmsyv-Q-22" edge="1">
          <mxGeometry relative="1" as="geometry" />
        </mxCell>
        <mxCell id="aRZHGxfGEfz58jmsyv-Q-20" value="&lt;b&gt;DPSM&lt;/b&gt;" style="whiteSpace=wrap;html=1;strokeWidth=3;sketch=1;curveFitting=1;jiggle=2;fillColor=#f5f5f5;fontColor=#333333;strokeColor=#000000;" parent="1" vertex="1">
          <mxGeometry x="-537.5" y="-180" width="120" height="60" as="geometry" />
        </mxCell>
        <mxCell id="aRZHGxfGEfz58jmsyv-Q-26" value="" style="edgeStyle=orthogonalEdgeStyle;rounded=1;orthogonalLoop=1;jettySize=auto;html=1;strokeWidth=3;curved=0;" parent="1" source="aRZHGxfGEfz58jmsyv-Q-22" target="aRZHGxfGEfz58jmsyv-Q-25" edge="1">
          <mxGeometry relative="1" as="geometry" />
        </mxCell>
        <mxCell id="aRZHGxfGEfz58jmsyv-Q-22" value="&lt;b&gt;CV value&lt;/b&gt;&lt;div&gt;non − zero term number&amp;nbsp;&lt;b&gt;&lt;/b&gt;&lt;/div&gt;" style="whiteSpace=wrap;html=1;fillColor=#f5f5f5;strokeColor=#000000;fontColor=#333333;strokeWidth=3;sketch=1;curveFitting=1;jiggle=2;" parent="1" vertex="1">
          <mxGeometry x="-540" y="-85" width="125" height="60" as="geometry" />
        </mxCell>
        <mxCell id="aRZHGxfGEfz58jmsyv-Q-46" style="edgeStyle=orthogonalEdgeStyle;rounded=1;orthogonalLoop=1;jettySize=auto;html=1;exitX=1;exitY=0.5;exitDx=0;exitDy=0;entryX=0;entryY=0.5;entryDx=0;entryDy=0;strokeWidth=3;curved=0;" parent="1" source="aRZHGxfGEfz58jmsyv-Q-25" target="aRZHGxfGEfz58jmsyv-Q-27" edge="1">
          <mxGeometry relative="1" as="geometry">
            <Array as="points">
              <mxPoint x="-400" y="35" />
              <mxPoint x="-400" y="-150" />
            </Array>
          </mxGeometry>
        </mxCell>
        <mxCell id="aRZHGxfGEfz58jmsyv-Q-25" value="&lt;b&gt;CPSDn =&amp;nbsp;&lt;/b&gt;&lt;div&gt;&lt;b&gt;CVn / CV1&lt;/b&gt;&lt;/div&gt;" style="whiteSpace=wrap;html=1;fillColor=#f5f5f5;strokeColor=#000000;fontColor=#333333;strokeWidth=3;sketch=1;curveFitting=1;jiggle=2;" parent="1" vertex="1">
          <mxGeometry x="-537.5" y="5" width="120" height="60" as="geometry" />
        </mxCell>
        <mxCell id="aRZHGxfGEfz58jmsyv-Q-30" value="" style="edgeStyle=orthogonalEdgeStyle;rounded=1;orthogonalLoop=1;jettySize=auto;html=1;curved=0;strokeWidth=3;fillColor=#60a917;strokeColor=#66CC00;" parent="1" source="aRZHGxfGEfz58jmsyv-Q-27" target="aRZHGxfGEfz58jmsyv-Q-29" edge="1">
          <mxGeometry relative="1" as="geometry" />
        </mxCell>
        <mxCell id="aRZHGxfGEfz58jmsyv-Q-37" value="&lt;b&gt;&lt;font style=&quot;&quot;&gt;YES&lt;/font&gt;&lt;/b&gt;" style="edgeLabel;html=1;align=center;verticalAlign=middle;resizable=0;points=[];fontColor=#000000;" parent="aRZHGxfGEfz58jmsyv-Q-30" vertex="1" connectable="0">
          <mxGeometry x="-0.3138" y="-2" relative="1" as="geometry">
            <mxPoint as="offset" />
          </mxGeometry>
        </mxCell>
        <mxCell id="aRZHGxfGEfz58jmsyv-Q-32" value="" style="edgeStyle=orthogonalEdgeStyle;rounded=1;orthogonalLoop=1;jettySize=auto;html=1;curved=0;strokeWidth=3;fillColor=#d80073;strokeColor=#FF0000;" parent="1" source="aRZHGxfGEfz58jmsyv-Q-27" target="aRZHGxfGEfz58jmsyv-Q-31" edge="1">
          <mxGeometry relative="1" as="geometry" />
        </mxCell>
        <mxCell id="aRZHGxfGEfz58jmsyv-Q-38" value="&lt;b&gt;NO&lt;/b&gt;" style="edgeLabel;html=1;align=center;verticalAlign=middle;resizable=0;points=[];fontColor=#000000;" parent="aRZHGxfGEfz58jmsyv-Q-32" vertex="1" connectable="0">
          <mxGeometry x="-0.3606" y="3" relative="1" as="geometry">
            <mxPoint y="3" as="offset" />
          </mxGeometry>
        </mxCell>
        <mxCell id="aRZHGxfGEfz58jmsyv-Q-27" value="&lt;b&gt;CPSD &amp;lt; THR1&lt;/b&gt;" style="rhombus;whiteSpace=wrap;html=1;fillColor=#fff2cc;strokeColor=#d6b656;strokeWidth=3;sketch=1;curveFitting=1;jiggle=2;" parent="1" vertex="1">
          <mxGeometry x="-365" y="-197.5" width="90" height="95" as="geometry" />
        </mxCell>
        <mxCell id="dJA3jDGMHxTQLogz002v-19" style="edgeStyle=orthogonalEdgeStyle;rounded=1;orthogonalLoop=1;jettySize=auto;html=1;exitX=0.5;exitY=1;exitDx=0;exitDy=0;strokeWidth=3;strokeColor=#66FF66;curved=0;" parent="1" source="aRZHGxfGEfz58jmsyv-Q-29" edge="1">
          <mxGeometry relative="1" as="geometry">
            <mxPoint x="-320" y="180" as="targetPoint" />
            <Array as="points" />
          </mxGeometry>
        </mxCell>
        <mxCell id="dJA3jDGMHxTQLogz002v-38" value="&lt;font style=&quot;color: rgb(0, 204, 0);&quot;&gt;&lt;b&gt;Normal&lt;/b&gt;&lt;/font&gt;" style="edgeLabel;html=1;align=center;verticalAlign=middle;resizable=0;points=[];" parent="dJA3jDGMHxTQLogz002v-19" vertex="1" connectable="0">
          <mxGeometry x="0.3355" y="-1" relative="1" as="geometry">
            <mxPoint x="1" y="15" as="offset" />
          </mxGeometry>
        </mxCell>
        <mxCell id="aRZHGxfGEfz58jmsyv-Q-29" value="&lt;b&gt;Normal&lt;/b&gt;" style="whiteSpace=wrap;html=1;fillColor=#66FF66;strokeColor=#00CC00;fontColor=#333333;strokeWidth=3;sketch=1;curveFitting=1;jiggle=2;" parent="1" vertex="1">
          <mxGeometry x="-380" y="-45" width="120" height="60" as="geometry" />
        </mxCell>
        <mxCell id="aRZHGxfGEfz58jmsyv-Q-34" value="" style="edgeStyle=orthogonalEdgeStyle;rounded=1;orthogonalLoop=1;jettySize=auto;html=1;curved=0;strokeWidth=3;strokeColor=#66CC00;" parent="1" source="aRZHGxfGEfz58jmsyv-Q-31" target="aRZHGxfGEfz58jmsyv-Q-33" edge="1">
          <mxGeometry relative="1" as="geometry" />
        </mxCell>
        <mxCell id="aRZHGxfGEfz58jmsyv-Q-41" value="&lt;b&gt;&lt;font style=&quot;color: rgb(0, 0, 0);&quot;&gt;YES&lt;/font&gt;&lt;/b&gt;" style="edgeLabel;html=1;align=center;verticalAlign=middle;resizable=0;points=[];fontColor=#4D4D4D;" parent="aRZHGxfGEfz58jmsyv-Q-34" vertex="1" connectable="0">
          <mxGeometry x="-0.4969" relative="1" as="geometry">
            <mxPoint y="3" as="offset" />
          </mxGeometry>
        </mxCell>
        <mxCell id="aRZHGxfGEfz58jmsyv-Q-36" value="" style="edgeStyle=orthogonalEdgeStyle;rounded=1;orthogonalLoop=1;jettySize=auto;html=1;strokeWidth=3;curved=0;strokeColor=#FF0000;" parent="1" source="aRZHGxfGEfz58jmsyv-Q-31" target="aRZHGxfGEfz58jmsyv-Q-35" edge="1">
          <mxGeometry relative="1" as="geometry" />
        </mxCell>
        <mxCell id="aRZHGxfGEfz58jmsyv-Q-40" value="&lt;b&gt;NO&lt;/b&gt;" style="edgeLabel;html=1;align=center;verticalAlign=middle;resizable=0;points=[];fontColor=#000000;" parent="aRZHGxfGEfz58jmsyv-Q-36" vertex="1" connectable="0">
          <mxGeometry x="-0.3575" y="1" relative="1" as="geometry">
            <mxPoint y="1" as="offset" />
          </mxGeometry>
        </mxCell>
        <mxCell id="aRZHGxfGEfz58jmsyv-Q-31" value="&lt;b&gt;CPSD &amp;lt; THR2&lt;/b&gt;" style="rhombus;whiteSpace=wrap;html=1;fillColor=#fff2cc;strokeColor=#d6b656;strokeWidth=3;sketch=1;curveFitting=1;jiggle=2;" parent="1" vertex="1">
          <mxGeometry x="-230" y="-197.5" width="100" height="95" as="geometry" />
        </mxCell>
        <mxCell id="dJA3jDGMHxTQLogz002v-20" style="edgeStyle=orthogonalEdgeStyle;rounded=1;orthogonalLoop=1;jettySize=auto;html=1;exitX=0.5;exitY=1;exitDx=0;exitDy=0;strokeWidth=3;strokeColor=#66FF66;curved=0;" parent="1" source="aRZHGxfGEfz58jmsyv-Q-33" edge="1">
          <mxGeometry relative="1" as="geometry">
            <mxPoint x="-180" y="180" as="targetPoint" />
            <Array as="points">
              <mxPoint x="-180" y="110" />
              <mxPoint x="-180" y="110" />
            </Array>
          </mxGeometry>
        </mxCell>
        <mxCell id="dJA3jDGMHxTQLogz002v-39" value="&lt;font style=&quot;color: rgb(0, 204, 0);&quot;&gt;&lt;b&gt;AF&lt;/b&gt;&lt;/font&gt;" style="edgeLabel;html=1;align=center;verticalAlign=middle;resizable=0;points=[];" parent="dJA3jDGMHxTQLogz002v-20" vertex="1" connectable="0">
          <mxGeometry x="0.3017" y="-1" relative="1" as="geometry">
            <mxPoint x="1" y="18" as="offset" />
          </mxGeometry>
        </mxCell>
        <mxCell id="aRZHGxfGEfz58jmsyv-Q-33" value="&lt;b&gt;Atrial&lt;/b&gt;&lt;div&gt;&lt;b&gt;Fibrillation&lt;/b&gt;&lt;/div&gt;" style="whiteSpace=wrap;html=1;fillColor=#FF9999;strokeColor=#FF3333;fontColor=#333333;strokeWidth=3;sketch=1;curveFitting=1;jiggle=2;" parent="1" vertex="1">
          <mxGeometry x="-240" y="-45" width="120" height="60" as="geometry" />
        </mxCell>
        <mxCell id="dJA3jDGMHxTQLogz002v-21" style="edgeStyle=orthogonalEdgeStyle;rounded=1;orthogonalLoop=1;jettySize=auto;html=1;exitX=1;exitY=0.5;exitDx=0;exitDy=0;strokeWidth=3;curved=0;strokeColor=#66FF66;" parent="1" source="aRZHGxfGEfz58jmsyv-Q-35" edge="1">
          <mxGeometry relative="1" as="geometry">
            <mxPoint x="140" y="-150" as="targetPoint" />
            <Array as="points">
              <mxPoint x="60" y="-150" />
              <mxPoint x="60" y="-150" />
            </Array>
          </mxGeometry>
        </mxCell>
        <mxCell id="dJA3jDGMHxTQLogz002v-42" value="&lt;b&gt;&lt;font style=&quot;color: rgb(0, 204, 0);&quot;&gt;VF&lt;/font&gt;&lt;/b&gt;" style="edgeLabel;html=1;align=center;verticalAlign=middle;resizable=0;points=[];" parent="dJA3jDGMHxTQLogz002v-21" vertex="1" connectable="0">
          <mxGeometry x="0.1617" relative="1" as="geometry">
            <mxPoint as="offset" />
          </mxGeometry>
        </mxCell>
        <mxCell id="aRZHGxfGEfz58jmsyv-Q-35" value="&lt;b&gt;Ventricular&lt;/b&gt;&lt;div&gt;&lt;b&gt;Fibrillation&lt;/b&gt;&lt;/div&gt;" style="whiteSpace=wrap;html=1;fillColor=#FF9999;strokeColor=#FF3333;fontColor=#333333;strokeWidth=3;sketch=1;curveFitting=1;jiggle=2;" parent="1" vertex="1">
          <mxGeometry x="-80" y="-180" width="120" height="60" as="geometry" />
        </mxCell>
        <mxCell id="dJA3jDGMHxTQLogz002v-6" value="" style="edgeStyle=orthogonalEdgeStyle;rounded=1;orthogonalLoop=1;jettySize=auto;html=1;strokeWidth=4;strokeColor=#9673A6;curved=0;" parent="1" source="dJA3jDGMHxTQLogz002v-1" target="dJA3jDGMHxTQLogz002v-5" edge="1">
          <mxGeometry relative="1" as="geometry" />
        </mxCell>
        <mxCell id="dJA3jDGMHxTQLogz002v-11" value="" style="edgeStyle=orthogonalEdgeStyle;rounded=1;orthogonalLoop=1;jettySize=auto;html=1;curved=0;strokeWidth=3;" parent="1" source="dJA3jDGMHxTQLogz002v-1" target="dJA3jDGMHxTQLogz002v-10" edge="1">
          <mxGeometry relative="1" as="geometry" />
        </mxCell>
        <mxCell id="dJA3jDGMHxTQLogz002v-12" value="&lt;b&gt;Trigger&lt;/b&gt;" style="edgeLabel;html=1;align=center;verticalAlign=middle;resizable=0;points=[];" parent="dJA3jDGMHxTQLogz002v-11" vertex="1" connectable="0">
          <mxGeometry x="-0.1689" y="-1" relative="1" as="geometry">
            <mxPoint y="-1" as="offset" />
          </mxGeometry>
        </mxCell>
        <mxCell id="dJA3jDGMHxTQLogz002v-1" value="&lt;b&gt;&lt;font style=&quot;font-size: 16px;&quot;&gt;State = START&lt;/font&gt;&lt;/b&gt;&lt;div&gt;&lt;span style=&quot;font-size: 16px;&quot;&gt;&lt;b&gt;&lt;br&gt;&lt;/b&gt;&lt;/span&gt;&lt;div&gt;&lt;font style=&quot;&quot;&gt;Trig a timer&lt;/font&gt;&lt;/div&gt;&lt;/div&gt;&lt;div&gt;&lt;b&gt;State &lt;/b&gt;&amp;lt;== TRAINING&lt;/div&gt;" style="rounded=0;whiteSpace=wrap;html=1;fillColor=#e1d5e7;strokeColor=#9673a6;sketch=1;curveFitting=1;jiggle=2;strokeWidth=5;" parent="1" vertex="1">
          <mxGeometry x="-700" y="-750" width="160" height="85" as="geometry" />
        </mxCell>
        <mxCell id="dJA3jDGMHxTQLogz002v-3" style="edgeStyle=orthogonalEdgeStyle;rounded=1;orthogonalLoop=1;jettySize=auto;html=1;exitX=1;exitY=0.5;exitDx=0;exitDy=0;entryX=0;entryY=0.5;entryDx=0;entryDy=0;strokeWidth=4;strokeColor=#9673A6;curved=0;" parent="1" source="dJA3jDGMHxTQLogz002v-2" target="dJA3jDGMHxTQLogz002v-1" edge="1">
          <mxGeometry relative="1" as="geometry" />
        </mxCell>
        <mxCell id="dJA3jDGMHxTQLogz002v-2" value="Initial" style="ellipse;whiteSpace=wrap;html=1;aspect=fixed;fillColor=#9673A6;strokeColor=#9673a6;" parent="1" vertex="1">
          <mxGeometry x="-790" y="-727.5" width="40" height="40" as="geometry" />
        </mxCell>
        <mxCell id="dJA3jDGMHxTQLogz002v-8" value="" style="edgeStyle=orthogonalEdgeStyle;rounded=1;orthogonalLoop=1;jettySize=auto;html=1;strokeWidth=4;strokeColor=#9673A6;curved=0;exitX=1;exitY=0.5;exitDx=0;exitDy=0;" parent="1" source="dJA3jDGMHxTQLogz002v-13" target="dJA3jDGMHxTQLogz002v-7" edge="1">
          <mxGeometry relative="1" as="geometry">
            <Array as="points">
              <mxPoint x="-40" y="-415" />
            </Array>
          </mxGeometry>
        </mxCell>
        <mxCell id="dJA3jDGMHxTQLogz002v-5" value="&lt;div&gt;&lt;b&gt;&lt;font style=&quot;font-size: 18px;&quot;&gt;&lt;br&gt;&lt;/font&gt;&lt;/b&gt;&lt;/div&gt;&lt;b&gt;&lt;font style=&quot;font-size: 18px;&quot;&gt;&lt;div style=&quot;&quot;&gt;&lt;b&gt;&lt;font style=&quot;&quot;&gt;&lt;br&gt;&lt;/font&gt;&lt;/b&gt;&lt;/div&gt;&lt;div style=&quot;&quot;&gt;&lt;b&gt;&lt;font style=&quot;&quot;&gt;&lt;br&gt;&lt;/font&gt;&lt;/b&gt;&lt;/div&gt;&lt;div style=&quot;&quot;&gt;&lt;b&gt;&lt;font style=&quot;&quot;&gt;&lt;br&gt;&lt;/font&gt;&lt;/b&gt;&lt;/div&gt;&lt;div style=&quot;&quot;&gt;&lt;b&gt;&lt;font style=&quot;&quot;&gt;&lt;br&gt;&lt;/font&gt;&lt;/b&gt;&lt;/div&gt;&lt;div style=&quot;&quot;&gt;&lt;b&gt;&lt;font style=&quot;&quot;&gt;&lt;br&gt;&lt;/font&gt;&lt;/b&gt;&lt;/div&gt;&lt;div style=&quot;&quot;&gt;&lt;b&gt;&lt;font style=&quot;&quot;&gt;&lt;br&gt;&lt;/font&gt;&lt;/b&gt;&lt;/div&gt;&lt;div style=&quot;&quot;&gt;&lt;b&gt;&lt;font style=&quot;&quot;&gt;&lt;br&gt;&lt;/font&gt;&lt;/b&gt;&lt;/div&gt;&lt;div style=&quot;&quot;&gt;&lt;b&gt;&lt;font style=&quot;&quot;&gt;&lt;br&gt;&lt;/font&gt;&lt;/b&gt;&lt;/div&gt;&lt;div style=&quot;&quot;&gt;&lt;b&gt;&lt;font style=&quot;&quot;&gt;&lt;br&gt;&lt;/font&gt;&lt;/b&gt;&lt;/div&gt;&lt;div style=&quot;&quot;&gt;&lt;b style=&quot;background-color: transparent; color: light-dark(rgb(0, 0, 0), rgb(255, 255, 255));&quot;&gt;&lt;font style=&quot;&quot;&gt;&lt;br&gt;&lt;/font&gt;&lt;/b&gt;&lt;/div&gt;&lt;div style=&quot;&quot;&gt;&lt;b style=&quot;background-color: transparent; color: light-dark(rgb(0, 0, 0), rgb(255, 255, 255));&quot;&gt;&lt;font style=&quot;&quot;&gt;&lt;br&gt;&lt;/font&gt;&lt;/b&gt;&lt;/div&gt;&lt;div style=&quot;&quot;&gt;&lt;b style=&quot;background-color: transparent; color: light-dark(rgb(0, 0, 0), rgb(255, 255, 255));&quot;&gt;&lt;font style=&quot;&quot;&gt;State = TRAINING&amp;nbsp;&amp;nbsp;&lt;/font&gt;&lt;/b&gt;&lt;/div&gt;&lt;/font&gt;&lt;/b&gt;" style="whiteSpace=wrap;html=1;fillColor=#e1d5e7;strokeColor=#9673a6;rounded=0;sketch=1;curveFitting=1;jiggle=2;strokeWidth=5;align=right;" parent="1" vertex="1">
          <mxGeometry x="-740" y="-610" width="470" height="290" as="geometry" />
        </mxCell>
        <mxCell id="dJA3jDGMHxTQLogz002v-14" value="" style="edgeStyle=orthogonalEdgeStyle;rounded=1;orthogonalLoop=1;jettySize=auto;html=1;strokeWidth=3;curved=0;entryX=0.5;entryY=0;entryDx=0;entryDy=0;" parent="1" source="dJA3jDGMHxTQLogz002v-10" target="dJA3jDGMHxTQLogz002v-16" edge="1">
          <mxGeometry relative="1" as="geometry" />
        </mxCell>
        <mxCell id="dJA3jDGMHxTQLogz002v-15" value="&lt;b&gt;Update_&lt;span style=&quot;background-color: light-dark(#ffffff, var(--ge-dark-color, #121212)); color: light-dark(rgb(0, 0, 0), rgb(255, 255, 255));&quot;&gt;Flag&lt;/span&gt;&lt;/b&gt;" style="edgeLabel;html=1;align=center;verticalAlign=middle;resizable=0;points=[];" parent="dJA3jDGMHxTQLogz002v-14" vertex="1" connectable="0">
          <mxGeometry x="-0.423" y="-2" relative="1" as="geometry">
            <mxPoint as="offset" />
          </mxGeometry>
        </mxCell>
        <mxCell id="dJA3jDGMHxTQLogz002v-10" value="&lt;b&gt;Timer&lt;/b&gt;&lt;div&gt;Period = 8000ms&lt;/div&gt;" style="whiteSpace=wrap;html=1;fillColor=#f5f5f5;strokeColor=#000000;rounded=0;sketch=1;curveFitting=1;jiggle=2;strokeWidth=3;fontColor=#333333;" parent="1" vertex="1">
          <mxGeometry x="-410" y="-737.5" width="120" height="60" as="geometry" />
        </mxCell>
        <mxCell id="dJA3jDGMHxTQLogz002v-13" value="&lt;b&gt;State &lt;/b&gt;&amp;lt;== TEST" style="whiteSpace=wrap;html=1;fillColor=#f5f5f5;strokeColor=#000000;fontColor=#333333;rounded=0;sketch=1;curveFitting=1;jiggle=2;strokeWidth=3;" parent="1" vertex="1">
          <mxGeometry x="-401.25" y="-445" width="102.5" height="60" as="geometry" />
        </mxCell>
        <mxCell id="dJA3jDGMHxTQLogz002v-17" style="edgeStyle=orthogonalEdgeStyle;rounded=1;orthogonalLoop=1;jettySize=auto;html=1;exitX=0.5;exitY=1;exitDx=0;exitDy=0;curved=0;strokeWidth=3;" parent="1" source="dJA3jDGMHxTQLogz002v-16" target="dJA3jDGMHxTQLogz002v-13" edge="1">
          <mxGeometry relative="1" as="geometry" />
        </mxCell>
        <mxCell id="dJA3jDGMHxTQLogz002v-16" value="&lt;b&gt;Update_Flag&amp;nbsp;&lt;/b&gt;&lt;div&gt;&lt;b&gt;==&amp;nbsp;&lt;/b&gt;&lt;b style=&quot;background-color: transparent; color: light-dark(rgb(0, 0, 0), rgb(255, 255, 255));&quot;&gt;1&lt;/b&gt;&lt;/div&gt;" style="rhombus;whiteSpace=wrap;html=1;fillColor=#fff2cc;strokeColor=#d6b656;strokeWidth=3;sketch=1;curveFitting=1;jiggle=2;" parent="1" vertex="1">
          <mxGeometry x="-397.5" y="-565" width="95" height="90" as="geometry" />
        </mxCell>
        <mxCell id="dJA3jDGMHxTQLogz002v-18" value="" style="rounded=1;whiteSpace=wrap;html=1;fillColor=none;strokeColor=#9673a6;strokeWidth=3;dashed=1;dashPattern=12 12;" parent="1" vertex="1">
          <mxGeometry x="-415" y="-585" width="130" height="220" as="geometry" />
        </mxCell>
        <mxCell id="dJA3jDGMHxTQLogz002v-25" style="edgeStyle=orthogonalEdgeStyle;rounded=1;orthogonalLoop=1;jettySize=auto;html=1;exitX=0.5;exitY=0;exitDx=0;exitDy=0;entryX=0.5;entryY=1;entryDx=0;entryDy=0;strokeWidth=3;curved=0;" parent="1" source="dJA3jDGMHxTQLogz002v-22" target="dJA3jDGMHxTQLogz002v-23" edge="1">
          <mxGeometry relative="1" as="geometry" />
        </mxCell>
        <mxCell id="dJA3jDGMHxTQLogz002v-28" style="edgeStyle=orthogonalEdgeStyle;rounded=1;orthogonalLoop=1;jettySize=auto;html=1;exitX=1;exitY=0.5;exitDx=0;exitDy=0;entryX=0.5;entryY=1;entryDx=0;entryDy=0;curved=0;strokeWidth=3;" parent="1" source="dJA3jDGMHxTQLogz002v-22" target="dJA3jDGMHxTQLogz002v-26" edge="1">
          <mxGeometry relative="1" as="geometry" />
        </mxCell>
        <mxCell id="dJA3jDGMHxTQLogz002v-33" style="edgeStyle=orthogonalEdgeStyle;rounded=1;orthogonalLoop=1;jettySize=auto;html=1;exitX=0.5;exitY=1;exitDx=0;exitDy=0;strokeWidth=3;curved=0;startArrow=classic;startFill=0;endArrow=none;strokeColor=#FF0000;entryX=0;entryY=0.5;entryDx=0;entryDy=0;" parent="1" source="dJA3jDGMHxTQLogz002v-22" target="dJA3jDGMHxTQLogz002v-31" edge="1">
          <mxGeometry relative="1" as="geometry">
            <Array as="points">
              <mxPoint x="-661" y="-377.5" />
              <mxPoint x="-590" y="-377.5" />
              <mxPoint x="-590" y="-412.5" />
            </Array>
          </mxGeometry>
        </mxCell>
        <mxCell id="dJA3jDGMHxTQLogz002v-34" value="&lt;b&gt;NO&lt;/b&gt;" style="edgeLabel;html=1;align=center;verticalAlign=middle;resizable=0;points=[];" parent="dJA3jDGMHxTQLogz002v-33" vertex="1" connectable="0">
          <mxGeometry x="0.1148" y="1" relative="1" as="geometry">
            <mxPoint x="-17" as="offset" />
          </mxGeometry>
        </mxCell>
        <mxCell id="dJA3jDGMHxTQLogz002v-22" value="&lt;b&gt;Current PSM&lt;/b&gt;" style="whiteSpace=wrap;html=1;fillColor=#f5f5f5;strokeColor=#000000;fontColor=#333333;rounded=0;sketch=1;curveFitting=1;jiggle=2;strokeWidth=3;" parent="1" vertex="1">
          <mxGeometry x="-712.53" y="-485" width="102.53" height="60" as="geometry" />
        </mxCell>
        <mxCell id="dJA3jDGMHxTQLogz002v-27" style="edgeStyle=orthogonalEdgeStyle;rounded=1;orthogonalLoop=1;jettySize=auto;html=1;exitX=1;exitY=0.5;exitDx=0;exitDy=0;entryX=0.5;entryY=0;entryDx=0;entryDy=0;strokeWidth=3;curved=0;" parent="1" source="dJA3jDGMHxTQLogz002v-23" target="dJA3jDGMHxTQLogz002v-26" edge="1">
          <mxGeometry relative="1" as="geometry" />
        </mxCell>
        <mxCell id="dJA3jDGMHxTQLogz002v-23" value="&lt;b&gt;Previous PSM&lt;/b&gt;" style="whiteSpace=wrap;html=1;fillColor=#f5f5f5;strokeColor=#000000;fontColor=#333333;rounded=0;sketch=1;curveFitting=1;jiggle=2;strokeWidth=3;" parent="1" vertex="1">
          <mxGeometry x="-712.53" y="-585" width="102.53" height="60" as="geometry" />
        </mxCell>
        <mxCell id="dJA3jDGMHxTQLogz002v-24" style="edgeStyle=orthogonalEdgeStyle;rounded=1;orthogonalLoop=1;jettySize=auto;html=1;exitX=1;exitY=0.5;exitDx=0;exitDy=0;entryX=0;entryY=0.5;entryDx=0;entryDy=0;strokeWidth=3;curved=0;" parent="1" source="aRZHGxfGEfz58jmsyv-Q-12" target="dJA3jDGMHxTQLogz002v-22" edge="1">
          <mxGeometry relative="1" as="geometry">
            <Array as="points">
              <mxPoint x="-790" y="-190" />
              <mxPoint x="-790" y="-455" />
            </Array>
          </mxGeometry>
        </mxCell>
        <mxCell id="dJA3jDGMHxTQLogz002v-32" style="edgeStyle=orthogonalEdgeStyle;rounded=1;orthogonalLoop=1;jettySize=auto;html=1;exitX=1;exitY=0.5;exitDx=0;exitDy=0;entryX=0.5;entryY=0;entryDx=0;entryDy=0;strokeWidth=3;curved=0;" parent="1" source="dJA3jDGMHxTQLogz002v-26" target="dJA3jDGMHxTQLogz002v-31" edge="1">
          <mxGeometry relative="1" as="geometry">
            <mxPoint x="-527.53" y="-445" as="targetPoint" />
            <Array as="points">
              <mxPoint x="-520" y="-509.5" />
              <mxPoint x="-520" y="-487.5" />
              <mxPoint x="-519" y="-487.5" />
            </Array>
          </mxGeometry>
        </mxCell>
        <mxCell id="dJA3jDGMHxTQLogz002v-37" value="&lt;b&gt;diff&lt;/b&gt;" style="edgeLabel;html=1;align=center;verticalAlign=middle;resizable=0;points=[];" parent="dJA3jDGMHxTQLogz002v-32" vertex="1" connectable="0">
          <mxGeometry x="0.2888" relative="1" as="geometry">
            <mxPoint x="1" y="-10" as="offset" />
          </mxGeometry>
        </mxCell>
        <mxCell id="dJA3jDGMHxTQLogz002v-26" value="&lt;b&gt;&lt;font style=&quot;font-size: 16px; line-height: 110%;&quot;&gt;-&lt;/font&gt;&lt;/b&gt;" style="ellipse;whiteSpace=wrap;html=1;aspect=fixed;strokeWidth=3;fillColor=#99CCFF;" parent="1" vertex="1">
          <mxGeometry x="-572.53" y="-525" width="30" height="30" as="geometry" />
        </mxCell>
        <mxCell id="dJA3jDGMHxTQLogz002v-35" style="edgeStyle=orthogonalEdgeStyle;rounded=1;orthogonalLoop=1;jettySize=auto;html=1;exitX=0.5;exitY=1;exitDx=0;exitDy=0;entryX=0.5;entryY=0;entryDx=0;entryDy=0;strokeColor=#66CC00;strokeWidth=3;curved=0;" parent="1" source="dJA3jDGMHxTQLogz002v-31" target="aRZHGxfGEfz58jmsyv-Q-14" edge="1">
          <mxGeometry relative="1" as="geometry">
            <Array as="points">
              <mxPoint x="-519" y="-350" />
              <mxPoint x="-675" y="-350" />
            </Array>
          </mxGeometry>
        </mxCell>
        <mxCell id="dJA3jDGMHxTQLogz002v-36" value="&lt;b&gt;YES&lt;/b&gt;" style="edgeLabel;html=1;align=center;verticalAlign=middle;resizable=0;points=[];" parent="dJA3jDGMHxTQLogz002v-35" vertex="1" connectable="0">
          <mxGeometry x="-0.4839" y="2" relative="1" as="geometry">
            <mxPoint x="-4" y="-2" as="offset" />
          </mxGeometry>
        </mxCell>
        <mxCell id="dJA3jDGMHxTQLogz002v-31" value="&lt;b&gt;diff &amp;lt; THR H&lt;/b&gt;" style="rhombus;whiteSpace=wrap;html=1;fillColor=#fff2cc;strokeColor=#d6b656;strokeWidth=3;sketch=1;curveFitting=1;jiggle=2;" parent="1" vertex="1">
          <mxGeometry x="-564" y="-460" width="90" height="95" as="geometry" />
        </mxCell>
        <mxCell id="dJA3jDGMHxTQLogz002v-43" value="" style="endArrow=none;html=1;rounded=0;strokeWidth=2;" parent="1" edge="1">
          <mxGeometry width="50" height="50" relative="1" as="geometry">
            <mxPoint x="-1160" y="200" as="sourcePoint" />
            <mxPoint x="-1160" y="-800" as="targetPoint" />
          </mxGeometry>
        </mxCell>
        <mxCell id="dJA3jDGMHxTQLogz002v-44" value="" style="endArrow=none;html=1;rounded=0;strokeWidth=2;" parent="1" edge="1">
          <mxGeometry width="50" height="50" relative="1" as="geometry">
            <mxPoint x="160" y="200" as="sourcePoint" />
            <mxPoint x="160" y="-800" as="targetPoint" />
          </mxGeometry>
        </mxCell>
        <mxCell id="dJA3jDGMHxTQLogz002v-45" value="" style="endArrow=none;html=1;rounded=0;strokeWidth=2;" parent="1" edge="1">
          <mxGeometry width="50" height="50" relative="1" as="geometry">
            <mxPoint x="-1160" y="-800" as="sourcePoint" />
            <mxPoint x="160" y="-800" as="targetPoint" />
          </mxGeometry>
        </mxCell>
        <mxCell id="dJA3jDGMHxTQLogz002v-46" value="" style="endArrow=none;html=1;rounded=0;strokeWidth=2;" parent="1" edge="1">
          <mxGeometry width="50" height="50" relative="1" as="geometry">
            <mxPoint x="-1160" y="200" as="sourcePoint" />
            <mxPoint x="160" y="200" as="targetPoint" />
          </mxGeometry>
        </mxCell>
        <mxCell id="dJA3jDGMHxTQLogz002v-47" value="" style="rounded=1;whiteSpace=wrap;html=1;fillColor=none;strokeColor=#9673a6;strokeWidth=3;dashed=1;" parent="1" vertex="1">
          <mxGeometry x="-730" y="-596.25" width="266.26" height="262.5" as="geometry" />
        </mxCell>
      </root>
    </mxGraphModel>
  </diagram>
</mxfile>
